<svg xmlns="http://www.w3.org/2000/svg" width="38.445" height="52" viewBox="0 0 38.445 52"><defs><style>.a{fill:none;stroke:#fff;stroke-width:2px;}</style></defs><path class="a" d="M36.445,12.237c0-3.6-1.1-8.845-3.2-11.9H3.2C1.1,3.4,0,8.637,0,12.237c0,9.481,8.135,20.025,18.157,20.569V46.343H11.03c-2.56,0-3.2,1.253-3.2,4H28.611c0-2.66-.95-4-3.2-4H18.157V32.806c10.021-.543,18.288-11.087,18.288-20.569ZM.54,16.464c2.169,1.2,6.211,2.078,10.512,2.078a17.618,17.618,0,0,0,10.076-2.9,16.076,16.076,0,0,1,9.278-2.682,24.662,24.662,0,0,1,5.963.706c-.5,8.619-9.287,19.136-18.212,19.136C10.207,32.807,1.675,24.1.54,16.464Z" transform="translate(1 0.661)"/></svg>