<svg xmlns="http://www.w3.org/2000/svg" width="70.093" height="52" viewBox="0 0 70.093 52"><defs><style>.a{fill:none;stroke:#fff;stroke-width:2px;}</style></defs><g transform="translate(1 1)"><path class="a" d="M48.387,9.677s0-2.9,0-4.839C48.387,2.81,46.145,0,41.935,0H25.856C21.123,0,19.4,2.894,19.4,4.839c0,1.735,0,4.839,0,4.839H0v37.1H22.8S28.378,50,33.871,50s10.9-3.226,10.9-3.226H67.742l.342-37.1ZM33.871,50A19.355,19.355,0,1,1,53.226,30.645,19.376,19.376,0,0,1,33.871,50Z"/><path class="a" d="M14.29,6.032V4.419A2.422,2.422,0,0,0,11.871,2H5.419A2.422,2.422,0,0,0,3,4.419V6.032" transform="translate(0.839 1.226)"/><path class="a" d="M26.466,37.369a12.9,12.9,0,1,1,12.9-12.9A12.918,12.918,0,0,1,26.466,37.369Z" transform="translate(7.405 6.179)"/></g></svg>