<svg xmlns="http://www.w3.org/2000/svg" width="25" height="25" viewBox="0 0 25 25"><defs><style>.a{fill:none;stroke:#ababab;}.b{fill:#ababab;}</style></defs><g transform="translate(0.5 0.5)"><ellipse class="a" cx="12" cy="12" rx="12" ry="12"/><path class="b" d="M6.832,8.615v-2.8c0-.668-.01-1.527-.927-1.527S4.836,5.02,4.836,5.768V8.615H3.052V2.861H4.759v.788h.023a1.876,1.876,0,0,1,1.69-.928c1.807,0,2.142,1.191,2.142,2.741V8.615Zm-4.906,0H.14V2.861H1.926V8.615h0ZM3.049,2.861h0ZM0,1.038A1.036,1.036,0,1,1,1.036,2.076,1.038,1.038,0,0,1,0,1.038Z" transform="translate(7.692 7.385)"/></g></svg>